<svg width="47" height="16" viewBox="0 0 47 16" fill="none" xmlns="http://www.w3.org/2000/svg">
<path d="M0.505682 15V13.7216L5.30682 8.46591C5.87027 7.85038 6.33428 7.31534 6.69886 6.8608C7.06345 6.40152 7.33333 5.97064 7.50852 5.56818C7.68845 5.16098 7.77841 4.73485 7.77841 4.28977C7.77841 3.77841 7.6553 3.3357 7.40909 2.96165C7.16761 2.58759 6.83617 2.29877 6.41477 2.09517C5.99337 1.89157 5.51989 1.78977 4.99432 1.78977C4.43561 1.78977 3.94792 1.90578 3.53125 2.13778C3.11932 2.36506 2.79972 2.68466 2.57244 3.09659C2.34991 3.50852 2.23864 3.99148 2.23864 4.54545H0.5625C0.5625 3.69318 0.758996 2.94508 1.15199 2.30114C1.54498 1.6572 2.08002 1.1553 2.7571 0.795454C3.43892 0.435605 4.2036 0.255681 5.05114 0.255681C5.90341 0.255681 6.65862 0.435605 7.31676 0.795454C7.97491 1.1553 8.491 1.64062 8.86506 2.25142C9.23911 2.86222 9.42614 3.54167 9.42614 4.28977C9.42614 4.82481 9.32907 5.34801 9.13494 5.85938C8.94555 6.366 8.61411 6.93182 8.14062 7.55682C7.67188 8.17708 7.02083 8.93466 6.1875 9.82955L2.92045 13.3239V13.4375H9.68182V15H0.505682ZM17.3594 15.1989C16.2893 15.1989 15.3778 14.9077 14.625 14.3253C13.8722 13.7382 13.2969 12.8883 12.8991 11.7756C12.5014 10.6581 12.3026 9.30871 12.3026 7.72727C12.3026 6.1553 12.5014 4.81297 12.8991 3.70028C13.3016 2.58286 13.8793 1.73059 14.6321 1.14347C15.3897 0.551609 16.2988 0.255681 17.3594 0.255681C18.42 0.255681 19.3267 0.551609 20.0795 1.14347C20.8371 1.73059 21.4148 2.58286 21.8125 3.70028C22.215 4.81297 22.4162 6.1553 22.4162 7.72727C22.4162 9.30871 22.2173 10.6581 21.8196 11.7756C21.4219 12.8883 20.8466 13.7382 20.0938 14.3253C19.3409 14.9077 18.4295 15.1989 17.3594 15.1989ZM17.3594 13.6364C18.42 13.6364 19.2438 13.125 19.831 12.1023C20.4181 11.0795 20.7116 9.62121 20.7116 7.72727C20.7116 6.4678 20.5767 5.39536 20.3068 4.50994C20.0417 3.62453 19.6581 2.94981 19.1562 2.4858C18.6591 2.02178 18.0601 1.78977 17.3594 1.78977C16.3082 1.78977 15.4867 2.30824 14.8949 3.34517C14.303 4.37737 14.0071 5.83807 14.0071 7.72727C14.0071 8.98674 14.1397 10.0568 14.4048 10.9375C14.67 11.8182 15.0511 12.4882 15.5483 12.9474C16.0502 13.4067 16.6539 13.6364 17.3594 13.6364ZM25.1151 15V13.7216L29.9162 8.46591C30.4796 7.85038 30.9437 7.31534 31.3082 6.8608C31.6728 6.40152 31.9427 5.97064 32.1179 5.56818C32.2978 5.16098 32.3878 4.73485 32.3878 4.28977C32.3878 3.77841 32.2647 3.3357 32.0185 2.96165C31.777 2.58759 31.4455 2.29877 31.0241 2.09517C30.6027 1.89157 30.1293 1.78977 29.6037 1.78977C29.045 1.78977 28.5573 1.90578 28.1406 2.13778C27.7287 2.36506 27.4091 2.68466 27.1818 3.09659C26.9593 3.50852 26.848 3.99148 26.848 4.54545H25.1719C25.1719 3.69318 25.3684 2.94508 25.7614 2.30114C26.1544 1.6572 26.6894 1.1553 27.3665 0.795454C28.0483 0.435605 28.813 0.255681 29.6605 0.255681C30.5128 0.255681 31.268 0.435605 31.9261 0.795454C32.5843 1.1553 33.1004 1.64062 33.4744 2.25142C33.8485 2.86222 34.0355 3.54167 34.0355 4.28977C34.0355 4.82481 33.9384 5.34801 33.7443 5.85938C33.5549 6.366 33.2235 6.93182 32.75 7.55682C32.2812 8.17708 31.6302 8.93466 30.7969 9.82955L27.5298 13.3239V13.4375H34.2912V15H25.1151ZM37.2244 15V13.7216L42.0256 8.46591C42.589 7.85038 43.053 7.31534 43.4176 6.8608C43.7822 6.40152 44.0521 5.97064 44.2273 5.56818C44.4072 5.16098 44.4972 4.73485 44.4972 4.28977C44.4972 3.77841 44.3741 3.3357 44.1278 2.96165C43.8864 2.58759 43.5549 2.29877 43.1335 2.09517C42.7121 1.89157 42.2386 1.78977 41.7131 1.78977C41.1544 1.78977 40.6667 1.90578 40.25 2.13778C39.8381 2.36506 39.5185 2.68466 39.2912 3.09659C39.0687 3.50852 38.9574 3.99148 38.9574 4.54545H37.2812C37.2812 3.69318 37.4777 2.94508 37.8707 2.30114C38.2637 1.6572 38.7988 1.1553 39.4759 0.795454C40.1577 0.435605 40.9223 0.255681 41.7699 0.255681C42.6222 0.255681 43.3774 0.435605 44.0355 0.795454C44.6937 1.1553 45.2098 1.64062 45.5838 2.25142C45.9579 2.86222 46.1449 3.54167 46.1449 4.28977C46.1449 4.82481 46.0478 5.34801 45.8537 5.85938C45.6643 6.366 45.3329 6.93182 44.8594 7.55682C44.3906 8.17708 43.7396 8.93466 42.9062 9.82955L39.6392 13.3239V13.4375H46.4006V15H37.2244Z" fill="white"/>
</svg>
